<?xml version="1.0" encoding="iso-8859-1"?>
<!-- Generator: Adobe Illustrator 17.1.0, SVG Export Plug-In . SVG Version: 6.00 Build 0)  -->
<!DOCTYPE svg PUBLIC "-//W3C//DTD SVG 1.1//EN" "http://www.w3.org/Graphics/SVG/1.1/DTD/svg11.dtd">
<svg version="1.1" id="Capa_1" xmlns="http://www.w3.org/2000/svg" xmlns:xlink="http://www.w3.org/1999/xlink" x="0px" y="0px"
	 viewBox="0 0 413.657 413.657" style="enable-background:new 0 0 413.657 413.657;" xml:space="preserve">
<path id="XMLID_155_" d="M381.246,131.688l-92.535-50.245c0,0,44.128-5.105,45.327-5.231c12.405-1.305,24.122-2.538,32.402-20.404
	c5.195-11.206,4.855-23.883-0.933-34.78c-5.241-9.871-14.481-17.037-25.346-19.658c-21.191-5.121-29.594,5.019-38.496,15.752
	l-28.857,34.389c-0.328-0.468-0.674-0.922-1.036-1.362c3.217-3.917,5.118-8.918,5.118-14.304c0-12.425-10.107-22.532-22.532-22.532
	H80.782c-12.424,0-22.532,10.108-22.532,22.533c0,5.386,1.901,10.387,5.118,14.303c-3.217,3.916-5.118,8.916-5.118,14.303
	c0,4.298,1.213,8.422,3.443,11.963l-32.161,49.171c-0.865,1.322-1.319,2.872-1.304,4.452c0.083,9.079,4.397,17.278,11.233,23.063
	c-1.654,3.944-2.514,8.188-2.514,12.518v215.517c0,17.934,14.591,32.524,32.525,32.524h196.2c17.934,0,32.524-14.591,32.524-32.524
	V165.616c0-4.326-0.86-8.569-2.517-12.517c6.836-5.785,11.151-13.985,11.235-23.064c0.015-1.623-0.465-3.212-1.375-4.557
	l-17.855-26.387l85.927,46.656c3.882,2.11,8.74,0.671,10.848-3.213C386.567,138.652,385.129,133.796,381.246,131.688z
	 M282.196,381.133c0,9.111-7.413,16.524-16.524,16.524h-196.2c-9.112,0-16.525-7.413-16.525-16.524V165.616
	c0-1.758,0.28-3.486,0.823-5.133c3.111,0.817,6.397,1.256,9.789,1.256c10.116,0,19.459-3.871,26.003-10.296
	c6.543,6.425,15.885,10.296,26.002,10.296c10.118,0,19.46-3.87,26.004-10.296c6.543,6.425,15.886,10.296,26.002,10.296
	c10.117,0,19.46-3.871,26.004-10.295c6.542,6.425,15.885,10.295,26.003,10.295c10.116,0,19.459-3.871,26.002-10.296
	c6.544,6.425,15.887,10.296,26.003,10.296c3.392,0,6.678-0.438,9.789-1.256c0.545,1.648,0.825,3.378,0.825,5.133V381.133z
	 M290.707,132.107c-1.381,7.693-9.457,13.632-19.125,13.632c-8.42,0-16.027-4.665-18.501-11.344
	c-1.162-3.14-4.155-5.223-7.502-5.223c-3.348,0-6.341,2.084-7.503,5.223c-2.472,6.68-10.079,11.344-18.499,11.344
	c-8.422,0-16.029-4.664-18.498-11.342c-1.162-3.141-4.155-5.226-7.503-5.226h-0.001c-3.347,0-6.341,2.084-7.503,5.224
	c-2.472,6.679-10.08,11.344-18.502,11.344c-8.42,0-16.027-4.665-18.5-11.345c-1.162-3.139-4.155-5.223-7.503-5.223
	c-3.347,0-6.34,2.084-7.502,5.224c-2.471,6.679-10.079,11.344-18.501,11.344c-8.42,0-16.027-4.664-18.499-11.343
	c-1.162-3.14-4.155-5.224-7.501-5.224c0,0,0,0-0.001,0c-3.347,0-6.34,2.084-7.502,5.222c-2.474,6.68-10.082,11.345-18.502,11.345
	c-9.694,0-17.787-5.97-19.136-13.693l33.903-51.835c0.456-0.679,4.304-6.096-1.672-10.719c-1.566-1.212-2.405-3.093-2.405-5.044
	c0-2.828,1.912-5.37,4.564-6.225c0.506,0.101,116.886,0.153,116.886,0.153c4.418,0,8-3.582,8-8s-3.582-8-8-8H80.378
	c-0.084,0-0.168,0.001-0.252,0.004c-0.163-0.04-0.328-0.075-0.495-0.105c-3.068-0.555-5.381-3.32-5.381-6.433
	c0-3.602,2.93-6.532,6.532-6.532h173.577c3.602,0,6.532,2.931,6.532,6.533c0,3.111-2.314,5.876-5.383,6.432
	c-3.808,0.688-6.577,4.004-6.576,7.873c0.001,3.87,2.771,7.185,6.578,7.872c3.067,0.554,5.381,3.317,5.381,6.429
	c0,0.78-0.508,2.505-0.561,2.647c-1.018,2.286-3.312,3.885-5.972,3.885H109.26c-4.418,0-8,3.582-8,8s3.582,8,8,8h145.098
	c1.852,0,3.65-0.225,5.373-0.647L290.707,132.107z M281.377,66.186l32.604-38.852c6.452-7.779,9.444-11.388,15.686-11.388
	c1.888,0,4.072,0.331,6.739,0.976c6.419,1.548,11.875,5.779,14.971,11.608c3.418,6.437,3.617,13.925,0.547,20.547
	c-4.464,9.634-8.268,10.034-19.561,11.222C331.11,60.431,281.377,66.186,281.377,66.186z M237.441,224.037l-32.936-19.015
	c-2.475-1.428-5.525-1.429-8,0.001l-28.935,16.705l-28.933-16.705c-2.476-1.43-5.525-1.429-8-0.001l-32.935,19.015
	c-2.475,1.43-4,4.07-4,6.929v38.029c0,2.858,1.525,5.499,4,6.928l28.935,16.707v33.41c0,2.857,1.524,5.499,4,6.928l32.934,19.017
	c1.237,0.715,2.619,1.072,4,1.072s2.762-0.357,4-1.072l32.937-19.017c2.475-1.429,3.999-4.07,3.999-6.928v-33.41l28.936-16.707
	c2.476-1.429,4-4.069,4-6.928v-38.029C241.441,228.107,239.917,225.467,237.441,224.037z M109.702,264.377v-28.792l24.935-14.396
	l24.934,14.396v28.791l-24.934,14.397L109.702,264.377z M192.506,321.422l-24.935,14.397l-24.934-14.397v-28.793l24.933-14.396
	l24.936,14.396V321.422z M225.441,264.377l-24.936,14.396l-24.935-14.396v-28.792l24.935-14.396l24.936,14.396V264.377z"/>
<g>
</g>
<g>
</g>
<g>
</g>
<g>
</g>
<g>
</g>
<g>
</g>
<g>
</g>
<g>
</g>
<g>
</g>
<g>
</g>
<g>
</g>
<g>
</g>
<g>
</g>
<g>
</g>
<g>
</g>
</svg>
